# xmcd
#
# Track frame offsets: 
#        150
#        26782
#        48387
#        65447
#        95627
#        112760
#        138232
#        160062
#        179692
#        201677
#        222122
#        238697
#        256650
#        283055
#        307672
#
# Disc length: 4462 seconds
#
# Revision: 1
# Processed by: cddbd v1.5.2PL0 Copyright (c) Steve Scherf et al.
# Submitted via: ExactAudioCopy v0.99pb5
#
DISCID=d6116c0f
DTITLE=vari - Salsa.it 2005
DYEAR=2005
DGENRE=Salsa y Bachata
TTITLE0=LA BANDA DEL PUERTO-Tu amor
TTITLE1=MEZCLA LATINA-Baila Andres
TTITLE2=EL RUBIO LOCO-Amor y razon
TTITLE3=CONJUNTO MASSALIA-Massilia y Cuba
TTITLE4=OLIVER ft RAZA LATINA-Tu primera vez
TTITLE5=EUROCUBAN PROJECT-Never leave you
TTITLE6=MASSIMO SCALICI-You
TTITLE7=ALMA LATINA-Hipocresia o verdad
TTITLE8=MOJITO PROYECT ft CROMA LATINA-Te quedas..te vas..
TTITLE9=RODOLFO GUERRA Y SINCOPA LATINA-Tumbao
TTITLE10=LATINMANIA-Equivocado
TTITLE11=CECILIA HERRERA ft CESAR AUGUSTO-Te dije basta
TTITLE12=MIGUEL ENRIQUEZ-Cubano soy rmx
TTITLE13=CLAN-Corazon de hielo rmx
TTITLE14=ANTONIO DA COSTA-Il ginecologo del ritmo rmx
EXTD=
EXTT0=
EXTT1=
EXTT2=
EXTT3=
EXTT4=
EXTT5=
EXTT6=
EXTT7=
EXTT8=
EXTT9=
EXTT10=
EXTT11=
EXTT12=
EXTT13=
EXTT14=
PLAYORDER=
